<svg width="420" height="167" viewBox="0 0 420 167" fill="none" xmlns="http://www.w3.org/2000/svg">
<path opacity="0.5" d="M119.61 48.43C118.993 49.8813 117.958 53.5195 104.184 76.1639C90.4095 98.8083 85.2342 104.832 85.2342 104.832C84.5773 105.866 83.2237 106.164 82.1887 105.508C81.9299 105.329 81.691 105.111 81.5119 104.832C81.5119 104.832 76.2768 98.7885 62.5422 76.1639C48.8275 53.5394 47.6332 49.7421 47.1157 48.43C46.5981 47.1377 47.0361 45.7858 48.9669 45.3882C49.5441 45.2689 50.6986 44.9906 52.6692 44.6526C54.6597 48.3902 58.0834 54.3943 64.0152 64.1757C76.7744 85.2098 81.6313 90.8361 81.6313 90.8361C82.2484 91.7904 83.5024 92.0687 84.4579 91.4524C84.6967 91.2933 84.9157 91.0746 85.0749 90.8361C85.0749 90.8361 89.892 85.2296 102.691 64.1757C108.663 54.3545 112.066 48.3704 114.057 44.6526C116.047 44.9906 117.222 45.2888 117.739 45.3882C119.491 45.766 120.208 46.9787 119.591 48.43" fill="white"/>
<path d="M117.043 38.3901C116.744 39.1058 116.326 40.3981 114.057 44.6327C112.066 48.3505 108.682 54.3346 102.691 64.1558C89.8919 85.1899 85.0749 90.8162 85.0749 90.8162C84.4578 91.7705 83.2038 92.0488 82.2483 91.4325C81.9896 91.2735 81.7905 91.0548 81.6313 90.8162C81.6313 90.8162 76.7744 85.1899 64.0152 64.1558C58.0834 54.3744 54.6796 48.3902 52.6692 44.6526C50.3602 40.3583 49.9223 39.0263 49.6635 38.3901C49.1659 37.1973 49.5839 35.9249 51.3953 35.567C53.2066 35.1893 61.527 33.0421 83.363 33.0421C105.199 33.0421 113.699 35.2092 115.331 35.567C116.963 35.9249 117.6 37.0581 117.043 38.3901Z" fill="white"/>
<path d="M290.775 46.1834C290.775 46.1834 290.696 46.4021 290.457 46.8594C290.238 47.257 289.88 47.8932 289.223 48.9668C287.849 51.2332 287.332 51.8495 287.332 51.8495C287.272 51.9489 287.133 51.9887 287.033 51.9092C287.013 51.9092 286.974 51.8694 286.974 51.8495C286.974 51.8495 286.456 51.2531 285.083 48.9668C284.446 47.9131 284.067 47.2769 283.868 46.8594C283.61 46.4021 283.57 46.263 283.55 46.1834C283.49 46.0443 283.55 45.925 283.749 45.8852C283.948 45.8455 284.844 45.6069 287.192 45.6069C289.541 45.6069 290.457 45.8455 290.636 45.8852C290.815 45.925 290.875 46.0443 290.815 46.1834" fill="white"/>
<path d="M148.612 77.3767H165.99V85.0507H138.023V77.814L155.121 53.3406H138.242V45.7063H165.87V52.943L148.612 77.3767Z" fill="white"/>
<path d="M190.115 55.2293C191.827 56.3028 193.081 57.774 193.897 59.623V53.9967H203.372V85.0308H193.897V79.4244C193.081 81.2733 191.807 82.7445 190.115 83.8181C188.403 84.8916 186.372 85.4284 183.984 85.4284C181.436 85.4284 179.127 84.7922 177.117 83.5C175.086 82.2276 173.494 80.3787 172.319 77.9731C171.145 75.5675 170.568 72.7444 170.568 69.5237C170.568 66.303 171.145 63.4202 172.319 61.0345C173.494 58.6488 175.086 56.7999 177.117 55.5275C179.147 54.2551 181.436 53.599 183.984 53.599C186.372 53.599 188.403 54.1358 190.115 55.2094V55.2293ZM182.113 63.957C180.879 65.289 180.242 67.1578 180.242 69.5237C180.242 71.8895 180.859 73.7583 182.113 75.0903C183.347 76.4224 184.999 77.0983 187.049 77.0983C189.1 77.0983 190.692 76.4025 191.986 75.0307C193.26 73.6589 193.917 71.8299 193.917 69.5237C193.917 67.2175 193.28 65.3487 191.986 63.9769C190.712 62.625 189.06 61.949 187.049 61.949C185.039 61.949 183.367 62.625 182.113 63.957Z" fill="white"/>
<path d="M236.593 55.5474C238.624 56.8197 240.216 58.6687 241.391 61.0544C242.565 63.4401 243.142 66.2831 243.142 69.5436C243.142 72.804 242.565 75.5874 241.391 77.993C240.216 80.3986 238.624 82.2475 236.593 83.5199C234.563 84.7922 232.274 85.4483 229.706 85.4483C227.337 85.4483 225.287 84.9115 223.575 83.838C221.864 82.7644 220.629 81.2932 219.833 79.4443V99.862H210.299V54.0165H219.833V59.6428C220.609 57.7939 221.864 56.3227 223.575 55.2492C225.287 54.1756 227.318 53.6388 229.706 53.6388C232.274 53.6388 234.563 54.275 236.593 55.5672V55.5474ZM221.724 63.9968C220.45 65.3487 219.793 67.1976 219.793 69.5237C219.793 71.8497 220.43 73.6589 221.724 75.0307C222.998 76.4025 224.65 77.0983 226.661 77.0983C228.671 77.0983 230.343 76.4224 231.597 75.0903C232.831 73.7583 233.468 71.9094 233.468 69.5237C233.468 67.138 232.851 65.289 231.597 63.957C230.363 62.625 228.711 61.949 226.661 61.949C224.65 61.949 223.018 62.625 221.724 63.9769V63.9968Z" fill="white"/>
<path d="M275.19 79.7226C274.135 81.4721 272.562 82.8638 270.512 83.8976C268.442 84.9314 265.954 85.4483 263.008 85.4483C258.589 85.4483 254.946 84.3748 252.1 82.2276C249.233 80.0805 247.681 77.0785 247.422 73.2215H257.554C257.693 74.7126 258.23 75.8657 259.146 76.7206C260.062 77.5755 261.216 77.993 262.629 77.993C263.863 77.993 264.819 77.655 265.536 76.9989C266.232 76.323 266.59 75.4283 266.59 74.3349C266.59 73.3408 266.272 72.5058 265.615 71.8299C264.958 71.1539 264.162 70.6171 263.187 70.1798C262.211 69.7623 260.878 69.2454 259.166 68.6489C256.678 67.794 254.647 66.9789 253.075 66.1837C251.502 65.3885 250.149 64.1956 249.014 62.625C247.88 61.0544 247.322 59.0067 247.322 56.4818C247.322 54.1358 247.919 52.1279 249.094 50.4181C250.288 48.7083 251.92 47.3962 254.03 46.5015C256.12 45.587 258.529 45.1298 261.236 45.1298C265.615 45.1298 269.099 46.1636 271.686 48.2511C274.254 50.3187 275.727 53.1815 276.065 56.8198H265.754C265.575 55.5275 265.098 54.4937 264.341 53.7382C263.585 52.9827 262.55 52.605 261.256 52.605C260.141 52.605 259.245 52.9032 258.549 53.4996C257.852 54.0961 257.514 54.9708 257.514 56.104C257.514 57.0186 257.812 57.8138 258.429 58.4699C259.046 59.1259 259.823 59.6429 260.738 60.0604C261.674 60.4779 263.008 60.9948 264.759 61.631C267.287 62.4858 269.337 63.3208 270.95 64.1558C272.542 64.9908 273.916 66.2036 275.07 67.794C276.225 69.3845 276.802 71.472 276.802 74.0168C276.802 76.0844 276.264 77.993 275.209 79.7425L275.19 79.7226Z" fill="white"/>
<path d="M291.99 54.0165V85.0507H282.455V54.0165H291.99Z" fill="white"/>
<path d="M316.831 55.2293C318.543 56.3029 319.797 57.774 320.613 59.623V53.9967H330.088V84.8718C330.088 87.7744 329.531 90.3788 328.416 92.685C327.301 94.9912 325.59 96.8401 323.3 98.2119C320.991 99.5837 318.145 100.28 314.721 100.28C310.044 100.28 306.301 99.1662 303.495 96.9594C300.688 94.7526 299.016 91.7506 298.439 87.9732H307.854C308.153 89.2257 308.829 90.2198 309.884 90.9156C310.939 91.6313 312.333 91.9693 314.025 91.9693C315.995 91.9693 317.588 91.3927 318.782 90.2794C319.996 89.1462 320.593 87.337 320.593 84.8519V79.4045C319.777 81.2534 318.523 82.7246 316.811 83.7982C315.099 84.8718 313.069 85.4086 310.681 85.4086C308.113 85.4086 305.824 84.7724 303.793 83.4801C301.763 82.2077 300.171 80.3588 298.996 77.9532C297.822 75.5476 297.245 72.7245 297.245 69.5038C297.245 66.2831 297.822 63.4004 298.996 61.0146C300.171 58.6289 301.763 56.78 303.793 55.5076C305.824 54.2352 308.113 53.5792 310.681 53.5792C313.069 53.5792 315.099 54.1159 316.811 55.1895L316.831 55.2293ZM308.829 63.957C307.595 65.289 306.958 67.1579 306.958 69.5237C306.958 71.8895 307.575 73.7583 308.829 75.0904C310.063 76.4224 311.716 77.0983 313.766 77.0983C315.816 77.0983 317.408 76.4025 318.682 75.0307C319.956 73.6589 320.613 71.8299 320.613 69.5237C320.613 67.2175 319.976 65.3487 318.682 63.9769C317.408 62.625 315.756 61.949 313.766 61.949C311.775 61.949 310.083 62.625 308.829 63.957Z" fill="white"/>
<path d="M365.261 57.2373C367.351 59.6031 368.406 62.8835 368.406 67.0187V85.0507H358.871V68.132C358.871 66.0644 358.314 64.4342 357.219 63.2612C356.124 62.0882 354.671 61.5117 352.84 61.5117C350.909 61.5117 349.376 62.128 348.242 63.3407C347.107 64.5733 346.55 66.303 346.55 68.5694V85.0308H337.015V53.9967H346.55V59.6627C347.445 57.8138 348.779 56.3426 350.531 55.269C352.302 54.1955 354.372 53.6587 356.741 53.6587C360.304 53.6587 363.131 54.8516 365.241 57.2174L365.261 57.2373Z" fill="white"/>
<path d="M279.35 114.713C279.788 115.071 280.146 115.508 280.425 116.045C280.703 116.582 280.823 117.139 280.823 117.735C280.823 118.49 280.624 119.166 280.246 119.783C279.867 120.399 279.31 120.876 278.573 121.214C277.837 121.572 276.981 121.731 275.966 121.731H270.412V106.82H275.767C276.782 106.82 277.638 106.979 278.355 107.317C279.071 107.655 279.609 108.113 279.967 108.689C280.325 109.266 280.504 109.902 280.504 110.618C280.504 111.512 280.265 112.228 279.788 112.805C279.31 113.381 278.673 113.799 277.897 114.057C278.434 114.137 278.932 114.355 279.39 114.713H279.35ZM272.343 113.262H275.628C276.543 113.262 277.24 113.043 277.737 112.626C278.235 112.208 278.494 111.612 278.494 110.856C278.494 110.101 278.235 109.504 277.737 109.087C277.24 108.669 276.523 108.451 275.568 108.451H272.343V113.282V113.262ZM278.056 119.445C278.593 118.988 278.872 118.351 278.872 117.536C278.872 116.721 278.593 116.065 278.016 115.588C277.439 115.111 276.682 114.872 275.727 114.872H272.343V120.141H275.787C276.762 120.141 277.519 119.902 278.056 119.445Z" fill="white"/>
<path d="M293.781 110.021L286.715 127.258H284.704L287.013 121.612L282.276 110.021H284.446L288.128 119.524L291.771 110.021H293.781Z" fill="white"/>
<path d="M310.919 106.82V108.391H306.859V121.711H304.908V108.391H300.828V106.82H310.939H310.919Z" fill="white"/>
<path d="M316.891 110.359C317.528 109.981 318.304 109.803 319.22 109.803V111.811H318.702C316.513 111.811 315.418 113.003 315.418 115.369V121.751H313.467V110.041H315.418V111.95C315.756 111.274 316.254 110.757 316.891 110.379V110.359Z" fill="white"/>
<path d="M332.019 110.021V121.731H330.068V120.001C329.69 120.598 329.173 121.075 328.516 121.393C327.859 121.731 327.122 121.89 326.326 121.89C325.41 121.89 324.594 121.711 323.858 121.333C323.121 120.956 322.564 120.379 322.126 119.624C321.708 118.868 321.489 117.954 321.489 116.86V109.981H323.42V116.582C323.42 117.735 323.719 118.63 324.296 119.246C324.873 119.862 325.689 120.18 326.704 120.18C327.719 120.18 328.575 119.862 329.173 119.226C329.77 118.59 330.068 117.655 330.068 116.423V109.981H332.019V110.021Z" fill="white"/>
<path d="M337.592 121.174C336.697 120.677 336 119.962 335.482 119.047C334.985 118.133 334.726 117.059 334.726 115.846C334.726 114.634 334.985 113.58 335.502 112.665C336.02 111.751 336.736 111.035 337.632 110.538C338.528 110.041 339.543 109.803 340.658 109.803C341.773 109.803 342.788 110.041 343.683 110.538C344.579 111.035 345.296 111.731 345.813 112.645C346.331 113.56 346.59 114.614 346.59 115.826C346.59 117.039 346.331 118.093 345.793 119.027C345.256 119.942 344.539 120.658 343.624 121.155C342.708 121.652 341.693 121.91 340.578 121.91C339.464 121.91 338.488 121.652 337.592 121.155V121.174ZM342.549 119.723C343.166 119.385 343.664 118.908 344.042 118.252C344.42 117.596 344.619 116.801 344.619 115.846C344.619 114.892 344.44 114.117 344.062 113.461C343.683 112.805 343.206 112.308 342.609 111.989C342.011 111.671 341.355 111.512 340.658 111.512C339.961 111.512 339.284 111.671 338.707 111.989C338.11 112.308 337.632 112.805 337.294 113.461C336.936 114.117 336.756 114.912 336.756 115.846C336.756 116.781 336.936 117.596 337.274 118.252C337.632 118.908 338.09 119.405 338.687 119.723C339.264 120.041 339.921 120.2 340.618 120.2C341.315 120.2 341.972 120.041 342.589 119.703L342.549 119.723Z" fill="white"/>
<path d="M352.74 110.359C353.377 109.981 354.154 109.803 355.069 109.803V111.811H354.552C352.362 111.811 351.267 113.003 351.267 115.369V121.751H349.317V110.041H351.267V111.95C351.606 111.274 352.103 110.757 352.74 110.379V110.359Z" fill="white"/>
<path d="M357.458 112.685C357.936 111.771 358.612 111.075 359.468 110.578C360.324 110.081 361.26 109.842 362.315 109.842C363.37 109.842 364.246 110.061 364.982 110.498C365.738 110.936 366.316 111.492 366.674 112.168V110.021H368.645V121.731H366.674V119.544C366.276 120.24 365.719 120.797 364.942 121.254C364.166 121.691 363.29 121.93 362.275 121.93C361.26 121.93 360.284 121.671 359.448 121.155C358.612 120.638 357.936 119.922 357.458 118.988C356.98 118.053 356.721 116.999 356.721 115.826C356.721 114.653 356.96 113.58 357.458 112.665V112.685ZM366.137 113.56C365.778 112.904 365.301 112.407 364.684 112.049C364.086 111.711 363.41 111.532 362.673 111.532C361.937 111.532 361.28 111.711 360.683 112.049C360.085 112.387 359.608 112.904 359.249 113.54C358.891 114.196 358.712 114.972 358.712 115.846C358.712 116.721 358.891 117.516 359.249 118.192C359.608 118.848 360.085 119.365 360.683 119.703C361.28 120.061 361.937 120.24 362.673 120.24C363.41 120.24 364.066 120.061 364.684 119.703C365.301 119.365 365.778 118.848 366.137 118.192C366.495 117.536 366.674 116.761 366.674 115.866C366.674 114.991 366.495 114.216 366.137 113.56Z" fill="white"/>
</svg>
